{"title":"Color Climax - The Best Cumshots Of The 70's","uid":6450600,"size":156526957,"categoryP":"porn","categoryS":"movie_clips","magnet":"?xt=urn:btih:c625937974bb626ce9609e0c7a3e4bbc0054cb89&amp;dn=Color+Climax+-+The+Best+Cumshots+Of+The+70%5C%27s&amp;tr=udp%3A%2F%2Ftracker.openbittorrent.com%3A80&amp;tr=udp%3A%2F%2Fopen.demonii.com%3A1337&amp;tr=udp%3A%2F%2Ftracker.coppersurfer.tk%3A6969&amp;tr=udp%3A%2F%2Fexodus.desync.com%3A6969","seeders":4,"leechers":0,"uploader":"Robin5555","files":2,"time":1307413034,"description":"------------------------------:TPB IS BENEDICTION TO ME :--------------------------\n\n\nScreen Link :---\n &lt;a href=&quot;\nhttp://www.desiupload.com/show.php/872900_ColorClimaxTheBestCumshotsOfThe70sthumb.jpg.html&quot; rel=&quot;nofollow&quot; target=&quot;_NEW&quot;&gt;\nhttp://www.desiupload.com/show.php/872900_ColorClimaxTheBestCumshotsOfThe70sthumb.jpg.html&lt;/a&gt;\n\n\nGeneral Info :---\n\n\nFormat                           : AVI\nFormat/Info                      : Audio Video Interleave\nFile size                        : 149 MiB\nDuration                         : 20mn 3s\nOverall bit rate                 : 1 040 Kbps\nWriting application              : MEncoder dev-SVN-rUNKNOWN-4.1.1\nWriting library                  : MPlayer\nComment                          : Joined with EO VideoNew value: %d... / \n\nVideo\nID                               : 0\nFormat                           : MPEG-4 Visual\nFormat profile                   : Advanced Simple@L5\nFormat settings, BVOP            : 2\nFormat settings, QPel            : No\nFormat settings, GMC             : No warppoints\nFormat settings, Matrix          : Default (H.263)\nCodec ID                         : XVID\nCodec ID/Hint                    : XviD\nDuration                         : 20mn 3s\nBit rate                         : 942 Kbps\nWidth                            : 352 pixels\nHeight                           : 288 pixels\nDisplay aspect ratio             : 4:3\nFrame rate                       : 25.000 fps\nStandard                         : PAL\nColor space                      : YUV\nChroma subsampling               : 4:2:0\nBit depth                        : 8 bits\nScan type                        : Progressive\nCompression mode                 : Lossy\nBits/(Pixel*Frame)               : 0.372\nStream size                      : 135 MiB (91%)\nWriting library                  : XviD 1.1.2 (UTC 2006-11-01)\n\nAudio\nID                               : 1\nFormat                           : MPEG Audio\nFormat version                   : Version 1\nFormat profile                   : Layer 3\nMode                             : Joint stereo\nMode extension                   : MS Stereo\nCodec ID                         : 55\nCodec ID/Hint                    : MP3\nDuration                         : 20mn 2s\nBit rate mode                    : Variable\nBit rate                         : 87.4 Kbps\nChannel(s)                       : 2 channels\nSampling rate                    : 44.1 KHz\nCompression mode                 : Lossy\nStream size                      : 12.3 MiB (8%)\nAlignment                        : Aligned on interleaves\nInterleave, duration             : 26 ms (0.65 video frame)\nInterleave, preload duration     : 510 ms\n\n\n\n------------------------------:TPB IS BENEDICTION TO ME :--------------------------\n\n\n\n\t\t","torrent":{"xt":"urn:btih:c625937974bb626ce9609e0c7a3e4bbc0054cb89","amp;dn":"Color+Climax+-+The+Best+Cumshots+Of+The+70%5C%27s","amp;tr":["udp%3A%2F%2Ftracker.openbittorrent.com%3A80","udp%3A%2F%2Fopen.demonii.com%3A1337","udp%3A%2F%2Ftracker.coppersurfer.tk%3A6969","udp%3A%2F%2Fexodus.desync.com%3A6969"],"infoHash":"c625937974bb626ce9609e0c7a3e4bbc0054cb89","infoHashBuffer":{"type":"Buffer","data":[198,37,147,121,116,187,98,108,233,96,158,12,122,62,75,188,0,84,203,137]},"announce":[],"urlList":[]}}